HIERARCHY
ROOT Hips
{
	OFFSET -0.179506 -22.333345 2.821913
	CHANNELS 6 Xposition Yposition Zposition Zrotation Yrotation Xrotation 
	JOINT LeftUpLeg
	{
		OFFSET 6.951974 -9.140623 -0.681533
		CHANNELS 3 Zrotation Yrotation Xrotation
		JOINT LeftLeg
		{
			OFFSET 3.427654 -37.519855 -0.449580
			CHANNELS 3 Zrotation Yrotation Xrotation
			JOINT LeftFoot
			{
				OFFSET -1.359570 -39.796059 -4.369333
				CHANNELS 3 Zrotation Yrotation Xrotation
				JOINT LeftToe
				{
					OFFSET 2.635814 -5.579078 11.928840
					CHANNELS 3 Zrotation Yrotation Xrotation
					End Site
					{
						OFFSET 0.000000 0.000000 0.000000
					}
				}
			}
		}
	}
	JOINT RightUpLeg
	{
		OFFSET -6.767048 -9.052170 -0.431982
		CHANNELS 3 Zrotation Yrotation Xrotation
		JOINT RightLeg
		{
			OFFSET -3.829005 -38.256897 -0.885003
			CHANNELS 3 Zrotation Yrotation Xrotation
			JOINT RightFoot
			{
				OFFSET 1.577377 -39.841461 -4.231180
				CHANNELS 3 Zrotation Yrotation Xrotation
				JOINT RightToe
				{
					OFFSET -2.537174 -4.814398 12.334795
					CHANNELS 3 Zrotation Yrotation Xrotation
					End Site
					{
						OFFSET 0.000000 0.000000 0.000000
					}
				}
			}
		}
	}
	JOINT Spine
	{
		OFFSET -0.253288 10.896323 -2.669631
		CHANNELS 3 Zrotation Yrotation Xrotation
		JOINT Spine1
		{
			OFFSET 0.548704 13.518043 0.109247
			CHANNELS 3 Zrotation Yrotation Xrotation
			JOINT Spine2
			{
				OFFSET 0.145701 5.292222 2.542457
				CHANNELS 3 Zrotation Yrotation Xrotation
				JOINT Neck
				{
					OFFSET -0.277840 21.387037 -4.285703
					CHANNELS 3 Zrotation Yrotation Xrotation
					JOINT Head
					{
						OFFSET 0.515184 6.496960 5.134897
						CHANNELS 3 Zrotation Yrotation Xrotation
						End Site
						{
							OFFSET 0.000000 0.000000 0.000000
						}
					}
				}
				JOINT LeftShoulder
				{
					OFFSET 7.884473 12.174932 -3.408961
					CHANNELS 3 Zrotation Yrotation Xrotation
					JOINT LeftArm
					{
						OFFSET 9.097692 3.046888 -0.886815
						CHANNELS 3 Zrotation Yrotation Xrotation
						JOINT LeftForeArm
						{
							OFFSET 25.961220 -1.277207 -2.745643
							CHANNELS 3 Zrotation Yrotation Xrotation
							JOINT LeftHand
							{
								OFFSET 24.923361 0.898606 -0.117091
								CHANNELS 3 Zrotation Yrotation Xrotation
								End Site
								{
									OFFSET 0.000000 0.000000 0.000000
								}
							}
						}
					}
				}
				JOINT RightShoulder
				{
					OFFSET -8.175920 11.883285 -3.861528
					CHANNELS 3 Zrotation Yrotation Xrotation
					JOINT RightArm
					{
						OFFSET -9.601238 3.255117 -0.914307
						CHANNELS 3 Zrotation Yrotation Xrotation
						JOINT RightForeArm
						{
							OFFSET -25.374195 -1.332924 -2.140099
							CHANNELS 3 Zrotation Yrotation Xrotation
							JOINT RightHand
							{
								OFFSET -25.529810 0.777228 -0.555919
								CHANNELS 3 Zrotation Yrotation Xrotation
								End Site
								{
									OFFSET 0.000000 0.000000 0.000000
								}
							}
						}
					}
				}
			}
		}
	}
}
MOTION
Frames: 16
Frame Time: 0.033333
-15.678024 121.280823 1.688120 30.624271 -81.496962 -30.805870 -1.312444 -3.277210 -13.524527 3.713863 -8.146998 0.262346 -1.190608 9.291575 -6.080532 0.029599 -0.100040 -0.949537 3.527406 3.208799 -22.209575 -0.401957 0.705971 8.569295 -0.456747 -7.253657 -5.194087 2.618999 0.108109 -2.042782 0.047719 0.321458 26.930015 0.266015 -0.070862 -2.978049 2.596331 1.662567 0.549767 -9.136391 -0.865508 -0.933046 3.842219 -0.286039 -8.574425 11.148911 -30.002628 -18.376068 -8.155974 -36.884183 -16.162106 11.002146 -18.189293 -25.508445 21.618286 1.384011 -9.623176 -5.190188 35.457013 -3.263307 -9.437835 31.909811 -27.353169 2.136835 2.698401 -30.364606 -25.043816 3.769659 -5.102362 
-15.908405 121.311890 1.928721 34.019343 -81.977455 -34.060455 -1.300830 -3.313166 -13.556000 3.657961 -7.693411 0.411485 -1.479166 9.247520 -5.720682 -0.000753 -0.113630 -0.900030 3.594415 3.139507 -21.371934 -0.701575 0.976251 7.215429 -0.384300 -6.930392 -5.094245 2.636605 0.101617 -2.032259 -0.100607 0.583553 26.515445 0.142265 -0.137058 -2.778355 2.574754 1.705012 0.357724 -9.044142 -1.005909 -1.099727 4.122477 -0.210221 -8.714305 10.327073 -30.040647 -17.796360 -7.943448 -36.315951 -15.852870 11.265897 -19.240051 -25.493348 21.514827 1.341332 -9.370512 -4.831132 35.525028 -2.984781 -9.349672 31.941900 -27.240729 2.132957 3.130289 -30.466371 -25.222701 3.518687 -4.884985 
-16.322216 121.413818 2.132753 38.148240 -82.413402 -37.789805 -1.278383 -3.412053 -13.869295 3.639874 -7.250144 0.911054 -1.756172 9.153598 -5.507977 0.044340 -0.145028 -0.881100 3.660556 3.018298 -20.795529 -0.974969 1.288570 6.083533 -0.249076 -6.609875 -5.065210 2.611841 0.054490 -1.988873 -0.190604 0.903705 26.124962 0.005065 -0.178408 -2.633476 2.519052 1.769507 0.200266 -8.997490 -0.919037 -1.455989 4.123498 0.115647 -8.713332 9.608992 -29.905045 -17.351157 -8.060641 -35.757969 -15.413922 12.044378 -20.591161 -25.957006 20.844275 1.400986 -9.911477 -4.348722 35.502886 -2.684206 -9.264601 31.805498 -27.047316 1.803213 3.938976 -31.181325 -24.591241 3.309590 -5.724897 
-16.800266 121.578812 2.383961 43.243044 -82.955785 -42.672676 -1.101236 -3.380624 -13.875284 3.566524 -6.831465 1.284976 -1.999161 9.026472 -5.133417 0.066138 -0.132836 -0.821205 3.829670 2.899112 -19.913675 -1.282922 1.546924 4.821684 -0.178876 -6.254205 -4.803558 2.613864 0.045868 -1.980189 -0.319919 1.158837 25.643361 -0.109905 -0.225676 -2.560144 2.557356 1.799375 0.147665 -8.858147 -0.806705 -1.543299 4.220508 0.563616 -8.732203 8.634361 -29.542264 -16.614810 -8.208324 -35.230955 -14.904604 12.567666 -21.896956 -25.935553 20.921453 1.415669 -9.854005 -3.877682 35.384993 -2.352733 -9.012754 32.076922 -26.765014 1.736017 4.823113 -31.098706 -24.579552 3.041446 -6.005016 
-17.496151 121.807968 2.325243 50.461978 -83.363370 -49.073074 -0.896057 -3.153829 -13.805794 3.595127 -6.604336 0.988982 -2.325493 8.723251 -4.562890 0.041026 -0.101229 -0.750650 3.865464 2.891049 -19.400998 -1.394010 2.188098 3.352927 0.018081 -5.957366 -4.432042 2.631706 -0.043075 -1.923080 -0.499128 1.379289 25.098209 -0.248409 -0.326817 -2.595504 2.521691 1.914679 0.211599 -8.617808 -0.330917 -1.896358 4.019991 0.752069 -8.948550 7.991967 -28.926104 -16.038492 -7.978165 -34.367108 -14.779403 12.962855 -22.890791 -25.731241 20.425380 0.038120 -9.219114 -3.852640 35.121118 -2.458606 -8.404692 32.658607 -26.564840 1.214007 6.095448 -30.825453 -24.559497 3.847672 -7.027907 
-18.129139 122.093552 2.540418 55.797138 -83.581971 -53.938684 -0.766212 -3.201576 -13.769390 3.453850 -6.177849 1.219364 -2.436270 8.258364 -3.903454 -0.033730 -0.042177 -0.759750 3.848912 2.727271 -18.757682 -1.614461 2.688163 2.227029 0.259718 -5.848787 -3.780568 2.607265 -0.055806 -2.051069 -0.485661 1.509230 24.579418 -0.460171 -0.293380 -3.274823 2.458542 1.881152 0.767460 -8.413777 -0.728545 -2.830337 4.181963 1.035965 -8.672562 7.247245 -28.540177 -15.481979 -8.564588 -33.447659 -13.847206 13.590570 -24.978566 -25.467757 19.364694 -0.484603 -9.728649 -3.461702 34.982020 -2.157087 -7.771708 32.556314 -25.799442 1.081296 7.450680 -30.338195 -22.331208 3.944641 -7.308753 
-18.727432 122.458755 2.721091 59.254880 -84.001263 -57.042628 -0.409368 -3.204315 -13.948048 3.426517 -6.023094 1.783632 -2.615059 8.449168 -3.111614 -0.017247 -0.058219 -0.743545 4.041177 2.621588 -18.265698 -1.577954 2.876635 1.634936 0.607850 -5.632870 -2.948787 2.509159 -0.045512 -2.070182 -0.687003 1.762372 24.089975 -0.479471 -0.394524 -3.537189 2.437628 1.849681 0.927682 -8.381740 -0.610467 -3.001529 4.134984 1.202424 -8.904369 6.586120 -28.233611 -14.840405 -8.413397 -32.609966 -13.212158 13.658849 -26.917403 -24.501995 19.066554 -1.156902 -9.375083 -2.815792 34.633363 -1.770473 -6.858993 32.509120 -24.988110 0.621778 9.103044 -29.997148 -21.415947 4.018798 -8.275564 
-19.258297 122.873444 2.927010 64.760138 -83.887093 -62.373014 -0.380408 -3.255498 -14.197475 3.158677 -5.799644 2.584708 -2.894431 8.157164 -1.910224 -0.009120 -0.070421 -0.749092 3.848757 2.588568 -17.859042 -1.871010 3.339291 1.463689 0.563637 -5.964753 -1.990596 2.388912 -0.010776 -2.074389 -0.805914 1.903245 23.610741 -0.560431 -0.478771 -3.723044 2.398461 1.856527 1.001896 -8.316007 -0.820446 -3.213204 4.141892 1.279043 -9.148077 5.922997 -27.872669 -14.204319 -8.894512 -31.629191 -12.369262 13.542737 -28.678000 -23.397504 18.936454 -1.666811 -8.595640 -2.414692 34.383280 -1.534412 -6.012888 32.486352 -24.209785 0.382918 10.576323 -29.293024 -20.831774 4.090307 -8.636728 
-19.604240 123.322433 2.858722 59.498916 -83.667705 -57.726398 -0.194180 -3.418290 -14.644815 3.136108 -5.967166 3.798625 -3.171130 8.666173 -0.255018 0.012105 -0.076502 -0.860288 3.970602 2.274596 -17.467116 -1.733877 2.773032 2.355535 0.682826 -6.458418 -0.852932 2.373424 0.074231 -2.135759 -0.994514 2.080298 23.308429 -0.444809 -0.465793 -3.596003 2.358492 1.701522 0.934858 -8.297906 -1.391173 -3.048695 4.239747 0.920953 -9.716082 5.894486 -27.987595 -13.904730 -9.250895 -31.131810 -11.105583 12.331000 -30.509918 -21.663699 18.802776 -1.388243 -9.117150 -1.753691 33.914726 -1.113356 -4.963156 31.795189 -23.141070 0.484686 11.623988 -28.973345 -20.104167 3.276992 -9.313183 
-20.020130 123.793213 2.769588 61.879789 -83.549256 -59.987342 -0.062835 -3.598515 -15.119851 3.201799 -5.872416 4.030106 -3.194670 8.981611 1.078813 -0.035544 -0.098157 -0.888703 4.012934 2.223006 -17.351604 -1.866243 2.892460 2.359969 0.755732 -7.018919 0.879340 2.233309 0.137388 -2.200303 -1.198634 2.228508 23.013564 -0.397408 -0.523144 -3.784020 2.306098 1.681148 0.930527 -8.177561 -1.449230 -3.146032 4.337884 0.981539 -9.872226 5.506235 -27.624002 -13.364361 -9.335547 -30.314047 -10.420116 11.899248 -31.927398 -20.595040 18.489632 -2.053516 -8.635484 -1.390546 33.605569 -0.809009 -4.235066 31.657260 -22.292343 0.235780 13.145888 -28.189685 -19.103119 3.554561 -9.784505 
-20.608780 124.241684 2.705592 61.933335 -83.360709 -59.696862 0.099550 -3.574117 -15.439988 3.241140 -5.709456 3.972159 -3.320372 8.745335 2.559686 -0.158633 -0.089215 -0.952619 3.971696 2.002046 -17.182128 -1.879364 2.950689 2.070418 1.037921 -7.214813 2.682985 2.105327 0.183961 -2.294886 -1.317612 2.370564 22.813135 -0.471597 -0.474137 -4.106775 2.323471 1.657810 1.171556 -8.023034 -1.861394 -3.637651 4.637192 0.827864 -10.108057 5.406350 -27.136892 -13.049870 -9.494971 -29.421207 -9.747918 12.128444 -34.443564 -19.891629 17.519459 -2.979644 -8.671072 -1.503415 33.012105 -0.965829 -3.176403 31.065933 -21.315665 -0.391400 15.019041 -27.394625 -17.528584 4.009817 -10.117834 
-21.365065 124.662857 2.440804 56.330511 -83.103983 -53.818171 0.286088 -3.534299 -15.667977 3.317418 -5.499308 4.238283 -3.325357 8.750148 3.282399 -0.163274 -0.104118 -0.984817 4.016710 1.974686 -17.122981 -1.670836 2.936732 2.384082 1.497579 -7.479837 4.419289 1.969777 0.256477 -2.310326 -1.481797 2.336400 22.515361 -0.378819 -0.467686 -4.460957 2.359981 1.499245 1.313231 -7.885665 -2.260411 -4.013149 4.867264 0.919253 -10.373545 5.569321 -26.543422 -12.808716 -9.647939 -28.478997 -8.964188 12.007750 -37.123539 -18.566039 16.880221 -3.873173 -8.665480 -1.535979 32.054531 -0.973813 -1.878952 30.269424 -20.058607 -1.145260 17.652183 -26.418031 -16.619474 4.451413 -10.745749 
-22.086937 125.029144 2.669321 55.596951 -82.990507 -52.558125 0.456265 -3.594513 -16.024957 3.126842 -5.160310 4.943525 -3.415994 8.613778 3.887007 -0.149357 -0.197811 -1.042752 3.843379 2.039586 -17.217757 -1.643469 3.184698 2.611579 2.015536 -7.820195 6.221519 1.583237 0.421176 -2.397532 -1.554242 2.356105 22.010513 -0.301775 -0.514313 -4.959041 2.325469 1.407834 1.460657 -7.720677 -2.670331 -4.210513 5.258951 1.079299 -10.284743 5.358128 -25.822272 -12.408017 -9.661851 -27.360753 -7.940292 12.271629 -40.066257 -17.341052 16.767705 -4.630049 -7.887916 -1.476036 31.129405 -0.937133 -0.864831 29.513968 -18.944081 -2.428990 20.312209 -25.832797 -15.994973 4.546399 -11.280185 
-22.796175 125.317749 2.567248 51.648585 -82.528981 -48.001431 0.567225 -3.589900 -15.866231 3.061365 -5.018111 5.510831 -3.408705 8.268750 4.695014 -0.126799 -0.210581 -1.115774 3.706497 2.071406 -17.059132 -1.676537 3.456334 2.581990 2.632738 -7.759327 7.910507 1.333110 0.507237 -2.494335 -1.631881 2.226345 21.501888 -0.288936 -0.524818 -5.286648 2.307175 1.226423 1.616550 -7.577666 -2.873846 -4.718967 5.364900 1.472042 -10.171500 5.233834 -25.158800 -11.840183 -9.100815 -26.057107 -7.255645 12.610234 -43.246661 -16.589215 16.122093 -5.578582 -6.931851 -1.654294 30.006159 -1.029557 -0.249101 28.450626 -17.827796 -3.424891 23.570409 -24.307847 -14.828196 4.884607 -10.993997 
-23.855099 125.548050 2.593731 47.747712 -82.061229 -43.338178 0.509731 -3.626273 -15.401748 3.112186 -4.861317 5.767446 -3.353592 8.392777 5.191484 -0.043744 -0.197593 -1.151841 3.494149 2.137165 -16.808895 -1.620605 3.892514 2.679842 3.252673 -7.705165 9.061009 1.169249 0.591023 -2.481355 -1.592008 2.096002 20.667010 -0.256005 -0.518662 -5.776883 2.308612 1.103269 1.938750 -7.455836 -3.256769 -5.257438 5.510255 1.678939 -10.295527 4.904587 -24.187465 -11.213831 -8.723419 -24.665121 -6.252802 13.424149 -47.206396 -16.074570 15.590755 -6.603332 -6.707224 -1.700004 28.539121 -1.159468 0.663311 26.916359 -16.670889 -5.863937 27.840075 -23.991201 -13.947261 5.300179 -11.570754 
-24.729994 125.707672 3.198697 44.518168 -81.161581 -39.205821 0.378000 -3.542142 -14.980636 2.831866 -4.616388 6.326965 -3.592429 7.705391 5.685410 -0.053093 -0.237486 -1.234089 3.063668 2.057878 -16.320401 -1.988702 4.332823 2.463652 3.428112 -7.913836 9.969807 0.933843 0.717317 -2.561899 -1.591232 1.867954 19.838081 -0.374934 -0.552696 -6.343604 2.323226 0.886697 2.414863 -7.457592 -3.533804 -5.895996 5.549324 2.182742 -10.474863 4.906374 -23.144746 -10.825280 -8.478122 -23.198350 -5.323304 15.097705 -51.905345 -16.566337 15.448320 -8.208593 -6.608795 -2.432102 26.523581 -1.936322 1.543224 24.741132 -15.340500 -8.789965 32.636559 -23.741571 -13.458853 6.176874 -11.736274 
